<svg width="20" height="20" viewBox="0 0 20 20" fill="none" xmlns="http://www.w3.org/2000/svg">
<rect width="20" height="20" rx="5" fill="#5985BB"/>
<path fill-rule="evenodd" clip-rule="evenodd" d="M15.1515 4.39941C15.4087 4.14448 15.7559 4.001 16.118 4.00001C16.4801 3.99901 16.8281 4.14056 17.0866 4.39407C17.3452 4.64758 17.4936 4.99267 17.4998 5.35473C17.506 5.7168 17.3694 6.06674 17.1196 6.32892L9.78381 15.4987C9.65773 15.6345 9.50557 15.7434 9.33641 15.8191C9.16725 15.8947 8.98457 15.9355 8.79931 15.9389C8.61404 15.9423 8.42998 15.9084 8.25813 15.8391C8.08629 15.7697 7.93019 15.6665 7.79918 15.5354L2.93866 10.6731C2.80325 10.5469 2.69464 10.3947 2.61931 10.2257C2.54398 10.0566 2.50348 9.87411 2.50021 9.68905C2.49695 9.504 2.53099 9.32018 2.60031 9.14857C2.66963 8.97696 2.7728 8.82107 2.90367 8.69019C3.03454 8.55932 3.19044 8.45615 3.36205 8.38683C3.53366 8.31751 3.71748 8.28347 3.90253 8.28674C4.08759 8.29 4.27009 8.33051 4.43915 8.40583C4.60821 8.48116 4.76036 8.58977 4.88654 8.72518L8.73453 12.5713L15.1166 4.43984C15.128 4.4256 15.1403 4.4121 15.1534 4.39941H15.1515Z" fill="white"/>
</svg>
