<svg width="18" height="18" viewBox="0 0 18 18" fill="none" xmlns="http://www.w3.org/2000/svg">
<path d="M8.99984 0.666656C4.3979 0.666656 0.666504 4.39806 0.666504 8.99999C0.666504 13.6019 4.3979 17.3333 8.99984 17.3333C13.6018 17.3333 17.3332 13.6019 17.3332 8.99999C17.3332 4.39806 13.6018 0.666656 8.99984 0.666656ZM12.5713 9.44642C12.5713 9.52826 12.5043 9.59523 12.4225 9.59523H9.59508V12.4226C9.59508 12.5045 9.52811 12.5714 9.44627 12.5714H8.55341C8.47156 12.5714 8.4046 12.5045 8.4046 12.4226V9.59523H5.57722C5.49537 9.59523 5.42841 9.52826 5.42841 9.44642V8.55356C5.42841 8.47172 5.49537 8.40475 5.57722 8.40475H8.4046V5.57737C8.4046 5.49553 8.47156 5.42856 8.55341 5.42856H9.44627C9.52811 5.42856 9.59508 5.49553 9.59508 5.57737V8.40475H12.4225C12.5043 8.40475 12.5713 8.47172 12.5713 8.55356V9.44642Z" fill="#F9F9F9"/>
</svg>
