<svg width="12" height="10" viewBox="0 0 12 10" fill="none" xmlns="http://www.w3.org/2000/svg">
<path d="M11.8332 8.9936C11.8332 9.09234 11.7971 9.17779 11.7249 9.24995C11.6528 9.32211 11.5673 9.35818 11.4686 9.35818C11.3698 9.35818 11.2844 9.32211 11.2122 9.24995C11.1401 9.17779 11.104 9.09234 11.104 8.9936V4.19705L7.08219 6.21365C6.77838 6.36556 6.41759 6.44152 5.99984 6.44152C5.58209 6.44152 5.2213 6.36556 4.91748 6.21365L0.61084 4.06033C0.314616 3.90842 0.166504 3.72803 0.166504 3.51916C0.166504 3.31028 0.314616 3.13368 0.61084 2.98937L4.91748 0.836049C5.2213 0.68414 5.58209 0.608185 5.99984 0.608185C6.41759 0.608185 6.77838 0.68414 7.08219 0.836049L11.3888 2.98937C11.6471 3.11849 11.7914 3.278 11.8218 3.46789C11.8294 3.47548 11.8332 3.49067 11.8332 3.51346V8.9936ZM7.44678 6.94282L9.64567 5.83768V7.44412C9.64567 7.77073 9.29058 8.04986 8.5804 8.28152C7.87023 8.51319 7.01004 8.62902 5.99984 8.62902C4.98964 8.62902 4.12945 8.51319 3.41927 8.28152C2.70909 8.04986 2.354 7.77073 2.354 7.44412V5.83768L4.5529 6.94282C4.85672 7.09473 5.33903 7.17068 5.99984 7.17068C6.66065 7.17068 7.14296 7.09473 7.44678 6.94282Z" fill="black"/>
</svg>
